<?xml version="1.0" standalone="no"?>
<!DOCTYPE svg PUBLIC "-//W3C//DTD SVG 20010904//EN"
 "http://www.w3.org/TR/2001/REC-SVG-20010904/DTD/svg10.dtd">
<svg version="1.0" xmlns="http://www.w3.org/2000/svg"
 width="192.000000pt" height="192.000000pt" viewBox="0 0 192.000000 192.000000"
 preserveAspectRatio="xMidYMid meet">
<metadata>
Created by potrace 1.14, written by Peter Selinger 2001-2017
</metadata>
<g transform="translate(0.000000,192.000000) scale(0.100000,-0.100000)"
fill="#000000" stroke="none">
<path d="M830 1555 l0 -65 30 0 c25 0 30 -4 30 -25 0 -19 -7 -26 -27 -31 -135
-30 -236 -86 -325 -183 -206 -222 -197 -569 18 -785 224 -223 584 -223 808 0
136 137 195 334 155 526 -28 134 -131 280 -252 359 -53 34 -135 67 -209 83
-21 5 -28 12 -28 31 0 21 5 25 30 25 l30 0 0 65 0 65 -130 0 -130 0 0 -65z
m277 -240 c76 -23 171 -91 225 -162 143 -190 126 -446 -42 -614 -183 -184
-478 -184 -660 0 -184 187 -187 470 -5 656 126 129 307 174 482 120z"/>
<path d="M883 1250 c-117 -24 -241 -126 -284 -237 -17 -44 -23 -78 -23 -143 0
-121 27 -185 113 -271 86 -86 150 -113 271 -113 107 0 178 26 251 91 54 49
105 120 94 131 -4 4 -82 41 -173 83 l-167 75 -3 197 c-3 220 5 203 -79 187z"/>
</g>
</svg>
